<svg width="22" height="23" viewBox="0 0 22 23" fill="none" xmlns="http://www.w3.org/2000/svg">
<path d="M15.3084 17.8983H6.69173C6.30673 17.8983 5.87589 17.5958 5.74756 17.2292L1.95256 6.61416C1.41173 5.0925 2.04423 4.625 3.34589 5.56L6.92089 8.1175C7.51673 8.53 8.19506 8.31916 8.45173 7.65L10.0651 3.35083C10.5784 1.97583 11.4309 1.97583 11.9442 3.35083L13.5576 7.65C13.8142 8.31916 14.4926 8.53 15.0792 8.1175L18.4342 5.725C19.8642 4.69833 20.5517 5.22083 19.9651 6.88L16.2617 17.2475C16.1242 17.5958 15.6934 17.8983 15.3084 17.8983Z" stroke="#292D32" stroke-width="2" stroke-linecap="round" stroke-linejoin="round"/>
<path d="M5.95837 20.6667H16.0417" stroke="#292D32" stroke-width="2" stroke-linecap="round" stroke-linejoin="round"/>
<path d="M8.70837 13.3333H13.2917" stroke="#292D32" stroke-width="2" stroke-linecap="round" stroke-linejoin="round"/>
</svg>
