<svg width="138" height="30" viewBox="0 0 138 30" fill="none" xmlns="http://www.w3.org/2000/svg">
<path d="M75.0243 9.89977H78.0903V18.4285C78.0903 22.7576 75.7044 25.2406 71.548 25.2406C67.4348 25.2406 65.0705 22.8008 65.0705 18.5472V9.91057H68.1365V18.45C68.1365 20.9763 69.3781 22.3257 71.5912 22.3257C73.8043 22.3257 75.0243 21.0087 75.0243 18.558V9.89977ZM57.751 15.9886H50.8201V9.89977H47.7541V25.0139H50.8201V18.8711H57.7402V25.0139H60.8062V9.89977H57.7402V15.9886H57.751ZM134.531 9.89977V24.9923H137.554V9.89977H134.531ZM122.493 18.504H128.075V15.7511H122.493V12.6527H130.59V9.91057H119.471V25.0031H130.882V22.2502H122.493V18.504ZM110.467 20.2853L107.034 9.88898H104.529L101.096 20.2853L97.7602 9.89977H94.4999L99.7682 25.0031H102.305L105.738 15.0818L109.171 25.0031H111.73L116.988 9.89977H113.803L110.467 20.2853ZM89.048 9.98614L95.6442 25.0031H92.4271L91.0668 21.8615H84.1467L84.0495 22.0774L82.7756 25.0031H79.6449L86.3059 9.89977H88.9832L89.048 9.98614ZM89.7821 18.7739L87.6014 13.7107L85.4314 18.7739L85.2803 19.1194H89.9225L89.7821 18.7739Z" fill="#24272A"/>
<path d="M17.569 23.4053C17.6122 23.3729 17.623 23.3081 17.6014 23.2542C14.6245 16.8558 10.9108 10.8269 6.53571 5.28994C6.53571 5.28994 3.05946 8.59346 3.30776 11.9078C3.36592 12.6719 3.57417 13.417 3.92057 14.1006C4.26698 14.7841 4.74476 15.3927 5.32658 15.8914C8.3602 18.8495 15.7013 22.5848 17.4071 23.4377C17.4611 23.4593 17.5258 23.4485 17.569 23.4053ZM16.4355 25.9315C16.4139 25.8667 16.3491 25.8236 16.2735 25.8236L4.05267 26.2446C5.38056 28.6089 7.61529 30.4442 9.93638 29.8828C11.545 29.4833 15.1723 26.9463 16.3707 26.0827C16.4678 26.0071 16.4355 25.9423 16.4355 25.9315ZM16.619 24.8411C16.6838 24.744 16.5758 24.6576 16.5758 24.6576C11.2103 21.0302 0.803135 15.4596 0.803135 15.4596C0.458186 16.5169 0.361689 17.6395 0.521142 18.7401C0.680596 19.8408 1.09171 20.8899 1.72252 21.8058C2.35334 22.7217 3.18686 23.4799 4.15832 24.0213C5.12978 24.5627 6.213 24.8728 7.3238 24.9275C7.50733 24.9599 14.5894 24.9275 16.4894 24.9167C16.5434 24.9059 16.5866 24.8843 16.619 24.8411ZM17.4287 0.0107958C16.8997 0.053979 15.4638 0.388649 15.4638 0.388649C12.2251 1.21993 11.4586 4.16718 11.4586 4.16718C10.8648 6.01326 11.4694 8.05367 11.4694 8.05367C12.549 12.847 17.8605 20.7387 19.0049 22.3905C19.0804 22.4769 19.1452 22.4445 19.1452 22.4445C19.21 22.4229 19.264 22.3689 19.264 22.2933C21.0345 4.67458 17.4287 0.0107958 17.4287 0.0107958ZM21.4771 22.4229C21.5419 22.4445 21.6174 22.4229 21.6498 22.3581C22.8266 20.6632 28.1057 12.8146 29.1853 8.04287C29.1853 8.04287 29.7683 5.73257 29.2069 4.15638C29.2069 4.15638 28.408 1.16595 25.1693 0.377853C25.1693 0.377853 24.2408 0.140345 23.2476 0C23.2476 0 19.6202 4.66379 21.3907 22.2825C21.3799 22.3473 21.4231 22.4013 21.4771 22.4229ZM24.3704 25.8344C24.3416 25.8402 24.3143 25.8518 24.2902 25.8685C24.2661 25.8852 24.2456 25.9066 24.23 25.9315C24.2192 25.9963 24.23 26.0503 24.2732 26.0935C25.4392 26.9355 28.991 29.4186 30.6967 29.8936C30.6967 29.8936 33.8599 30.9732 36.602 26.2554L24.3704 25.8344ZM39.8623 15.438C39.8623 15.438 29.4768 21.0194 24.1005 24.6468C24.0465 24.69 24.0141 24.7548 24.0357 24.8195C24.0357 24.8195 24.0897 24.9167 24.1653 24.9167C26.0869 24.9167 33.3633 24.9275 33.5576 24.8951C34.2809 24.8411 34.9934 24.6792 35.6628 24.4093C35.6628 24.4093 38.2538 23.5888 39.5925 20.6416C39.5925 20.6416 40.7908 18.2449 39.8623 15.438ZM23.1181 23.4053C23.1612 23.4377 23.226 23.4485 23.28 23.4161C25.0289 22.5416 32.3161 18.8387 35.3281 15.8914C35.3281 15.8914 37.239 14.3584 37.3361 11.8862C37.552 8.46391 34.1082 5.28994 34.1082 5.28994C34.1082 5.28994 27.7387 13.0089 23.0641 23.211C23.0566 23.2453 23.0576 23.281 23.067 23.3148C23.0764 23.3487 23.0939 23.3797 23.1181 23.4053Z" fill="#CE0E2D"/>
</svg>
