<svg width="142" height="30" viewBox="0 0 142 30" fill="none" xmlns="http://www.w3.org/2000/svg">
<g clip-path="url(#clip0_1_304)">
<path d="M50.3605 17.2791L49.5233 19.6512H49.4535C49.314 19.1163 49.0582 18.3023 48.6396 17.3256L44.1512 6.0465H39.7559V24.0232H42.6628V12.9302C42.6628 12.2325 42.6628 11.4418 42.6396 10.4651C42.6163 9.97673 42.5698 9.60464 42.5466 9.32557H42.6163C42.7559 10.0232 42.9186 10.5349 43.0349 10.8605L48.4303 23.9767H50.4768L55.8256 10.7442C55.9419 10.4419 56.0582 9.8372 56.1745 9.32557H56.2442C56.1745 10.6512 56.128 11.8372 56.1047 12.5581V23.9535H59.1977V5.99999H54.9652L50.3605 17.2791ZM62.128 11.0698H65.1512V23.9535H62.128V11.0698ZM63.6628 5.6279C63.1512 5.6279 62.7326 5.81394 62.3838 6.13952C62.0349 6.46511 61.8489 6.88371 61.8489 7.39534C61.8489 7.88371 62.0349 8.30231 62.3838 8.6279C62.7326 8.95348 63.1512 9.11627 63.6628 9.11627C64.1745 9.11627 64.6163 8.93022 64.9419 8.6279C65.2907 8.30231 65.4768 7.88371 65.4768 7.39534C65.4768 6.90697 65.2907 6.48836 64.9419 6.13952C64.6396 5.81394 64.1977 5.6279 63.6628 5.6279ZM75.8721 10.9535C75.314 10.8372 74.7326 10.7674 74.1745 10.7674C72.8024 10.7674 71.5466 11.0698 70.5 11.6744C69.4535 12.2791 68.6163 13.1163 68.0814 14.1628C67.5233 15.2325 67.2442 16.4651 67.2442 17.8837C67.2442 19.1163 67.5233 20.2093 68.0582 21.2093C68.5931 22.186 69.3373 22.9767 70.3373 23.5116C71.2907 24.0465 72.407 24.3256 73.6628 24.3256C75.1047 24.3256 76.3373 24.0232 77.314 23.4651L77.3373 23.4419V20.6512L77.221 20.7442C76.7791 21.0698 76.2675 21.3488 75.7559 21.5116C75.221 21.6977 74.7326 21.7907 74.314 21.7907C73.1047 21.7907 72.1512 21.4419 71.4768 20.6744C70.7791 19.9302 70.4303 18.907 70.4303 17.6279C70.4303 16.3023 70.7791 15.2558 71.5 14.4884C72.221 13.7209 73.1745 13.3256 74.3373 13.3256C75.314 13.3256 76.314 13.6512 77.221 14.3023L77.3373 14.3953V11.4419L77.314 11.4186C76.9187 11.2558 76.4768 11.0698 75.8721 10.9535ZM85.8489 10.8605C85.1047 10.8605 84.407 11.093 83.8024 11.5814C83.2907 12 82.9419 12.6046 82.6396 13.3256H82.6163V11.0698H79.5931V23.9535H82.6163V17.3721C82.6163 16.2558 82.8489 15.3256 83.3605 14.6512C83.8721 13.9535 84.5233 13.6046 85.314 13.6046C85.5931 13.6046 85.8721 13.6744 86.221 13.7209C86.5466 13.8139 86.7791 13.907 86.9419 14.0232L87.0582 14.1163V11.093L86.9884 11.0698C86.7791 10.9302 86.3605 10.8605 85.8489 10.8605ZM94.0815 10.7907C91.9652 10.7907 90.2675 11.4186 89.0815 12.6512C87.8721 13.8837 87.2907 15.5814 87.2907 17.7209C87.2907 19.7209 87.8954 21.3488 89.0582 22.5349C90.221 23.6977 91.8024 24.3023 93.7791 24.3023C95.8489 24.3023 97.5001 23.6744 98.6861 22.4186C99.8954 21.1628 100.477 19.4884 100.477 17.4186C100.477 15.3721 99.9187 13.7442 98.7791 12.5581C97.6861 11.3721 96.0815 10.7907 94.0815 10.7907ZM96.5001 20.6977C95.9419 21.4186 95.0582 21.7674 93.9652 21.7674C92.8721 21.7674 91.9884 21.4186 91.3605 20.6512C90.7326 19.9302 90.4303 18.8837 90.4303 17.5581C90.4303 16.186 90.7559 15.1395 91.3605 14.3953C91.9884 13.6512 92.8489 13.2791 93.9419 13.2791C95.0117 13.2791 95.8489 13.6279 96.4535 14.3488C97.0582 15.0698 97.3838 16.1163 97.3838 17.4884C97.3373 18.8837 97.0815 19.9767 96.5001 20.6977ZM107.221 16.4186C106.268 16.0232 105.663 15.7209 105.384 15.4651C105.151 15.2325 105.035 14.907 105.035 14.4884C105.035 14.1395 105.174 13.7907 105.523 13.5581C105.872 13.3256 106.267 13.2093 106.849 13.2093C107.361 13.2093 107.895 13.3023 108.407 13.4418C108.919 13.5814 109.384 13.7907 109.756 14.0698L109.872 14.1628V11.3256L109.802 11.3023C109.454 11.1628 108.988 11.0232 108.43 10.907C107.872 10.8139 107.361 10.7674 106.942 10.7674C105.5 10.7674 104.314 11.1163 103.384 11.8837C102.454 12.6046 102.012 13.5814 102.012 14.7209C102.012 15.3256 102.105 15.8605 102.314 16.3023C102.523 16.7442 102.826 17.1628 103.244 17.5116C103.663 17.8372 104.267 18.2093 105.105 18.5581C105.802 18.8605 106.337 19.093 106.663 19.2791C106.988 19.4651 107.198 19.6744 107.361 19.8372C107.477 20.0232 107.547 20.2558 107.547 20.5581C107.547 21.4186 106.895 21.8372 105.57 21.8372C105.058 21.8372 104.523 21.7442 103.895 21.5349C103.267 21.3256 102.686 21.0232 102.198 20.6744L102.081 20.5814V23.5349L102.151 23.5581C102.593 23.7674 103.128 23.907 103.779 24.0698C104.43 24.186 105.012 24.2791 105.523 24.2791C107.081 24.2791 108.361 23.9302 109.267 23.1628C110.198 22.4186 110.686 21.4651 110.686 20.2325C110.686 19.3721 110.454 18.6046 109.942 18.0232C109.267 17.4651 108.43 16.8837 107.221 16.4186ZM118.663 10.7907C116.547 10.7907 114.849 11.4186 113.663 12.6512C112.477 13.8837 111.872 15.5814 111.872 17.7209C111.872 19.7209 112.477 21.3488 113.64 22.5349C114.802 23.6977 116.384 24.3023 118.361 24.3023C120.43 24.3023 122.081 23.6744 123.268 22.4186C124.477 21.1628 125.058 19.4884 125.058 17.4186C125.058 15.3721 124.5 13.7442 123.361 12.5581C122.267 11.3721 120.663 10.7907 118.663 10.7907ZM121.058 20.6977C120.5 21.4186 119.616 21.7674 118.523 21.7674C117.407 21.7674 116.547 21.4186 115.919 20.6512C115.291 19.9302 114.988 18.8837 114.988 17.5581C114.988 16.186 115.314 15.1395 115.919 14.3953C116.547 13.6512 117.407 13.2791 118.5 13.2791C119.547 13.2791 120.407 13.6279 121.012 14.3488C121.616 15.0698 121.942 16.1163 121.942 17.4884C121.942 18.8837 121.64 19.9767 121.058 20.6977ZM141.221 13.5581V11.0698H138.174V7.2558L138.081 7.27906L135.198 8.13952L135.128 8.16278V11.0698H130.57V9.44185C130.57 8.69766 130.756 8.11627 131.081 7.74418C131.407 7.37208 131.895 7.18604 132.5 7.18604C132.919 7.18604 133.361 7.27906 133.849 7.48836L133.965 7.55813V4.93022L133.895 4.90697C133.477 4.76743 132.919 4.67441 132.198 4.67441C131.291 4.67441 130.5 4.88371 129.779 5.23255C129.058 5.6279 128.523 6.16278 128.128 6.88371C127.733 7.58138 127.523 8.37208 127.523 9.27906V11.0698H125.407V13.5349H127.523V23.9535H130.57V13.5581H135.128V20.186C135.128 22.907 136.407 24.2791 138.965 24.2791C139.384 24.2791 139.826 24.2093 140.244 24.1395C140.686 24.0465 141.012 23.9302 141.198 23.8372L141.221 23.8139V21.3256L141.105 21.4186C140.919 21.5349 140.756 21.6279 140.477 21.6977C140.244 21.7674 140.035 21.7907 139.872 21.7907C139.267 21.7907 138.849 21.6512 138.547 21.3023C138.268 20.9767 138.128 20.4419 138.128 19.6512V13.5581H141.221Z" fill="#737373"/>
<path d="M0.779297 0H15.0351V14.2558H0.779297V0Z" fill="#F25022"/>
<path d="M16.5232 0H30.779V14.2558H16.5232V0Z" fill="#7FBA00"/>
<path d="M0.779053 15.7442H15.0349V30H0.779053V15.7442Z" fill="#00A4EF"/>
<path d="M16.5232 15.7442H30.779V30H16.5232V15.7442Z" fill="#FFB900"/>
</g>
<defs>
<clipPath id="clip0_1_304">
<rect width="140.449" height="30" fill="white" transform="translate(0.775269)"/>
</clipPath>
</defs>
</svg>
